#!OML:ASF F:\VICON\USERDATA\INSTALL\rory3\rory3.ASF
:FULLY-SPECIFIED
:DEGREES
240
root 3.8988 17.6092 -0.0281007 17.6707 7.23645 1.45693
lowerback -10.7161 0.251161 8.00346
upperback -6.42817 -0.35504 0.900427
thorax -0.792792 -0.378439 -3.59102
lowerneck -10.3868 7.68746 0.135928
upperneck 11.0282 10.5987 -1.81766
head 5.1213 5.07627 0.204759
rclavicle 4.95719e-015 3.18055e-015
rhumerus -34.4196 45.5363 -109.762
rradius 44.973
rwrist 4.23515
rhand -19.1751 -48.4492
rfingers 7.12502
rthumb 7.13615 -78.3089
lclavicle 4.95719e-015 3.18055e-015
lhumerus -3.80747 -48.5075 80.556
lradius 58.3061
lwrist 29.4443
lhand -24.3818 -19.1949
lfingers 7.12502
lthumb 2.10861 10.7744
rfemur -5.38417 9.38857 -0.0012128
rtibia 1.11319e-014
rfoot -7.43678 -33.2157
rtoes 3.17112
lfemur -25.0183 -3.32312 -23.8048
ltibia 21.239
lfoot -12.1413 6.69082
ltoes 2.26614
241
root 3.922 17.6098 -0.0252213 17.5618 7.34258 1.06096
lowerback -11.1 0.29536 8.35896
upperback -6.22752 -0.379686 1.10172
thorax -0.380819 -0.375229 -3.58612
lowerneck -10.054 7.75074 0.32528
upperneck 10.5313 10.6948 -2.27809
head 4.94918 5.11353 0.0182232
rclavicle -4.10653e-015 2.46493e-014
rhumerus -34.005 46.4405 -109.637
rradius 45.2034
rwrist 4.21609
rhand -18.5959 -47.5633
rfingers 7.12502
rthumb 7.69522 -77.4032
lclavicle -4.10653e-015 2.46493e-014
lhumerus -2.62122 -48.5051 79.5749
lradius 58.5624
lwrist 29.5868
lhand -24.0199 -19.7332
lfingers 7.12502
lthumb 2.45812 10.2324
rfemur -5.30485 9.42026 0.384106
rtibia 6.36111e-015
rfoot -6.75459 -33.2301
rtoes 1.58832
lfemur -24.9531 -3.29814 -23.4524
ltibia 21.2749
lfoot -12.1806 6.69613
ltoes 2.22769
242
root 3.95123 17.6109 -0.0236254 17.5009 7.39893 1.07749
lowerback -11.1626 0.318622 8.55497
upperback -6.21965 -0.373464 1.03204
thorax -0.343081 -0.376463 -3.7687
lowerneck -9.69475 7.76416 0.642079
upperneck 10.2151 10.69 -2.57069
head 4.82523 5.11505 -0.140679
rclavicle 1.10225e-014 7.15625e-015
rhumerus -34.0696 47.0646 -110.08
rradius 45.4673
rwrist 4.65311
rhand -18.657 -47.3463
rfingers 7.12502
rthumb 7.63624 -77.1885
lclavicle 1.10225e-014 7.15625e-015
lhumerus -1.65154 -48.8155 78.5635
lradius 58.7847
lwrist 29.7058
lhand -23.9111 -19.563
lfingers 7.12502
lthumb 2.56322 10.4013
rfemur -5.16473 9.37136 0.288149
rtibia -3.33958e-014
rfoot -6.21517 -33.2108
rtoes 0.360893
lfemur -24.8557 -3.30909 -23.5899
ltibia 21.2925
lfoot -12.2312 6.63345
ltoes 2.41013
243
root 3.97826 17.6089 -0.0206295 17.6123 7.36335 1.49461
lowerback -11.2281 0.341315 8.32095
upperback -6.2769 -0.322962 0.840348
thorax -0.358336 -0.350929 -3.83357
lowerneck -9.61374 7.72483 0.784456
upperneck 10.0903 10.6252 -2.68158
head 4.78598 5.08488 -0.206594
rclavicle -8.38002e-015 3.02153e-014
rhumerus -33.9229 47.4424 -110.354
rradius 45.8394
rwrist 4.16982
rhand -18.0048 -47.7033
rfingers 7.12502
rthumb 8.26572 -77.5216
lclavicle -8.38002e-015 3.02153e-014
lhumerus -0.641988 -49.2523 77.5284
lradius 59.0302
lwrist 29.8534
lhand -24.4445 -19.6493
lfingers 7.12502
lthumb 2.04806 10.3206
rfemur -5.13594 9.24511 -0.300119
rtibia -2.06736e-014
rfoot -6.02437 -33.1513
rtoes -0.0166684
lfemur -24.8659 -3.25939 -24.1925
ltibia 21.2765
lfoot -12.2919 6.45511
ltoes 2.56226
244
root 3.99541 17.6063 -0.0184778 17.7329 7.26383 1.67894
lowerback -11.3271 0.385091 8.08493
upperback -6.31159 -0.250321 0.826478
thorax -0.327222 -0.308621 -3.70864
lowerneck -9.75448 7.76371 0.814419
upperneck 10.134 10.6879 -2.78236
head 4.83126 5.10768 -0.229607
rclavicle -6.02255e-015 -3.18055e-015
rhumerus -33.7397 48.1988 -110.514
rradius 46.1411
rwrist 3.80405
rhand -17.3626 -47.7144
rfingers 7.12502
rthumb 8.88544 -77.5074
lclavicle -6.02255e-015 -3.18055e-015
lhumerus 0.311235 -49.3765 76.667
lradius 59.3209
lwrist 30.1629
lhand -24.6451 -19.9878
lfingers 7.12502
lthumb 1.85429 9.98388
rfemur -5.24852 9.23655 -0.638807
rtibia 6.36111e-015
rfoot -6.01503 -33.0998
rtoes 0.131086
lfemur -24.9379 -3.16314 -24.4984
ltibia 21.2261
lfoot -12.302 6.34454
ltoes 2.61819
245
root 4.00668 17.6063 -0.0136696 17.7495 7.19779 1.50329
lowerback -10.6341 0.432328 8.21125
upperback -6.89963 -0.096988 0.84732
thorax -1.31072 -0.288345 -3.73503
lowerneck -9.46912 7.85229 1.04385
upperneck 10.6273 10.785 -2.67513
head 4.94461 5.16664 -0.224477
rclavicle 1.78161e-014 -2.8625e-014
rhumerus -34.8708 48.5671 -111.712
rradius 46.4237
rwrist 3.82943
rhand -17.5938 -47.527
rfingers 7.12502
rthumb 8.66235 -77.3293
lclavicle 1.78161e-014 -2.8625e-014
lhumerus -0.144322 -49.6042 76.7484
lradius 59.6913
lwrist 30.4167
lhand -24.2736 -20.0424
lfingers 7.12502
lthumb 2.21314 9.92589
rfemur -5.34439 9.32839 -0.546363
rtibia -6.36111e-015
rfoot -6.6122 -32.9947
rtoes 1.75318
lfemur -24.9886 -3.14257 -24.352
ltibia 21.2173
lfoot -12.2686 6.4321
ltoes 2.47099
246
root 4.01649 17.6074 -0.0135326 17.6422 7.16438 1.26112
lowerback -10.3067 0.489325 8.34093
upperback -7.12345 0.0143242 0.919359
thorax -1.71542 -0.256852 -3.71979
lowerneck -9.14767 7.98475 0.957056
upperneck 10.6528 10.9374 -2.3518
head 4.87821 5.26305 -0.116637
rclavicle 1.52567e-014 -1.27222e-014
rhumerus -35.2691 49.0343 -112.299
rradius 46.7032
rwrist 3.71611
rhand -18.3486 -47.6074
rfingers 7.12502
rthumb 7.9339 -77.4385
lclavicle 1.52567e-014 -1.27222e-014
lhumerus 0.264156 -49.821 76.2108
lradius 59.9947
lwrist 30.7409
lhand -24.1872 -19.719
lfingers 7.12502
lthumb 2.29657 10.2484
rfemur -5.33604 9.45285 -0.344468
rtibia 2.06736e-014
rfoot -7.25451 -32.929
rtoes 3.50163
lfemur -24.9295 -3.12395 -24.123
ltibia 21.2318
lfoot -12.2305 6.54021
ltoes 2.2934
247
root 4.02398 17.6077 -0.0231327 17.4972 6.99593 1.02019
lowerback -10.1014 0.575897 8.43622
upperback -7.1173 0.142519 1.01869
thorax -1.80631 -0.197031 -3.65775
lowerneck -9.00927 8.13613 0.463937
upperneck 10.5127 11.1337 -1.79657
head 4.75462 5.37975 0.126779
rclavicle -2.09718e-014 3.65764e-014
rhumerus -34.993 49.4121 -112.302
rradius 46.9631
rwrist 3.74788
rhand -18.3965 -47.6482
rfingers 7.12502
rthumb 7.88765 -77.481
lclavicle -2.09718e-014 3.65764e-014
lhumerus 1.20711 -49.8961 75.2648
lradius 60.3077
lwrist 31.1545
lhand -24.0518 -19.647
lfingers 7.12502
lthumb 2.42735 10.3189
rfemur -5.38656 9.71319 -0.187239
rtibia 1.11319e-014
rfoot -7.4455 -32.8903
rtoes 4.10818
lfemur -24.8372 -3.19635 -23.8653
ltibia 21.2242
lfoot -12.1635 6.86937
ltoes 2.48665
248
root 4.05547 17.6026 -0.0333246 17.5575 7.02594 1.34994
lowerback -10.0481 0.574927 8.37202
upperback -7.20873 0.15664 0.893333
thorax -1.9301 -0.19787 -3.75166
lowerneck -8.94543 8.19995 0.247692
upperneck 10.5723 11.2186 -1.53255
head 4.73547 5.4297 0.242159
rclavicle 4.17448e-015 -2.38542e-014
rhumerus -34.8563 49.7638 -112.425
rradius 47.2745
rwrist 3.78656
rhand -17.8871 -47.4281
rfingers 7.12502
rthumb 8.37926 -77.2419
lclavicle 4.17448e-015 -2.38542e-014
lhumerus 1.94604 -50.0264 74.4151
lradius 60.6638
lwrist 31.3707
lhand -23.8447 -19.5634
lfingers 7.12502
lthumb 2.62734 10.4002
rfemur -5.34997 9.56589 -0.685025
rtibia 2.38542e-014
rfoot -6.89364 -32.8703
rtoes 2.97327
lfemur -24.8227 -3.31079 -24.3397
ltibia 21.1908
lfoot -12.1921 6.8708
ltoes 2.80006
249
root 4.0787 17.5964 -0.0230984 17.5058 6.95765 1.58074
lowerback -10.2937 0.645962 8.23551
upperback -7.09017 0.229236 0.789574
thorax -1.65841 -0.145216 -3.77838
lowerneck -9.05749 8.1868 0.4425
upperneck 10.574 11.1935 -1.68531
head 4.77429 5.41381 0.171152
rclavicle 4.29872e-015 2.54444e-014
rhumerus -34.4576 50.4672 -112.416
rradius 47.576
rwrist 3.77915
rhand -17.6905 -47.4315
rfingers 7.12502
rthumb 8.56905 -77.2376
lclavicle 4.29872e-015 2.54444e-014
lhumerus 3.08569 -50.1806 73.3276
lradius 60.9082
lwrist 31.484
lhand -23.8565 -19.1043
lfingers 7.12502
lthumb 2.61591 10.8594
rfemur -5.22578 9.57341 -1.05491
rtibia 9.54166e-015
rfoot -6.67672 -32.8275
rtoes 2.52885
lfemur -24.6519 -3.22844 -24.7291
ltibia 21.1304
lfoot -12.2572 6.77289
ltoes 2.91479
250
root 4.09685 17.5907 -0.000839535 17.3206 6.88153 1.42331
lowerback -10.7643 0.781276 8.39445
upperback -6.75908 0.328528 0.812354
thorax -1.04014 -0.0669396 -3.83454
lowerneck -9.36928 8.17443 0.626721
upperneck 10.6204 11.1754 -1.86867
head 4.86128 5.39558 0.103227
rclavicle -7.95139e-016 -1.11319e-014
rhumerus -33.7089 51.3359 -112.116
rradius 47.7874
rwrist 3.87191
rhand -17.703 -47.4147
rfingers 7.12502
rthumb 8.55694 -77.2213
lclavicle -7.95139e-016 -1.11319e-014
lhumerus 4.60712 -50.1488 72.0398
lradius 61.0488
lwrist 31.6592
lhand -23.6803 -19.2433
lfingers 7.12502
lthumb 2.78616 10.7183
rfemur -5.01468 9.73566 -0.944086
rtibia -4.45278e-014
rfoot -7.01494 -32.7526
rtoes 2.79655
lfemur -24.3233 -3.09365 -24.6753
ltibia 21.0284
lfoot -12.2698 6.79264
ltoes 2.49867
251
root 4.10993 17.587 0.0106884 17.3303 6.8055 1.32665
lowerback -11.0755 0.85398 8.3923
upperback -6.63147 0.385381 0.865919
thorax -0.728435 -0.0216139 -3.77087
lowerneck -9.75184 8.21033 0.662394
upperneck 10.9103 11.2263 -1.84658
head 5.0159 5.41367 0.133562
rclavicle 1.41137e-014 -8.74653e-015
rhumerus -33.2514 52.1325 -112.026
rradius 48.0572
rwrist 3.79479
rhand -18.2179 -47.2306
rfingers 7.12502
rthumb 8.06002 -77.0569
lclavicle 1.41137e-014 -8.74653e-015
lhumerus 5.87993 -50.1055 70.8611
lradius 61.2644
lwrist 31.8497
lhand -23.3743 -19.6573
lfingers 7.12502
lthumb 3.08162 10.3002
rfemur -5.02012 9.81654 -0.917335
rtibia -3.65764e-014
rfoot -7.2859 -32.6635
rtoes 2.95545
lfemur -24.2636 -3.08471 -24.6215
ltibia 20.9892
lfoot -12.2548 6.89466
ltoes 2.33148
